<?xml version="1.0" encoding="utf-8"?>
<!-- Generator: Adobe Illustrator 24.0.1, SVG Export Plug-In . SVG Version: 6.00 Build 0)  -->
<svg version="1.1" id="Layer_1" xmlns="http://www.w3.org/2000/svg" xmlns:xlink="http://www.w3.org/1999/xlink" x="0px" y="0px"
	 viewBox="0 0 3500 2000" style="enable-background:new 0 0 3500 2000;" xml:space="preserve">
<style type="text/css">
	.st0{display:none;fill:#FFFFFF;}
	.st1{fill:#50BFA5;}
	.st2{fill:#3C8F7C;}
	.st3{fill:#355389;}
	.st4{fill:#466EB6;}
	.st5{fill:#F7CC7F;}
	.st6{fill:#FAE0B2;}
	.st7{fill:#96D9C9;}
	.st8{fill:#F48C7F;}
	.st9{fill:#B75742;}
	.st10{fill:#86B1F2;}
	.st11{fill:#F47458;}
	.st12{fill:#184655;}
	.st13{fill:#F7A491;}
	.st14{fill:#13375B;}
	.st15{fill:#D14368;}
	.st16{display:none;fill:#F47458;}
	.st17{fill:#D67086;}
	.st18{fill:#FFFFFF;}
	.st19{fill:#9BC1F9;}
</style>
<rect x="0" class="st0" width="3500" height="2000"/>
<g>
	<polygon class="st1" points="1590.57,677.07 1576.55,681.37 1567.14,659.58 1545.87,663.35 1536.16,648.19 1528.49,653.11 
		1541.47,673.38 1561.63,669.81 1571.42,692.48 1592.52,686 	"/>
	<polygon class="st1" points="2489.48,1460.78 2475.46,1465.08 2466.05,1443.29 2444.78,1447.06 2435.07,1431.9 2427.4,1436.82 
		2440.38,1457.08 2460.54,1453.52 2470.33,1476.19 2491.43,1469.71 	"/>
	<g>
		<g>
			<path class="st1" d="M1504.2,1718.75c0,0-74.8-253.52-80.8-309.45c-6-55.92,35.82-38.59,35.82-38.59s-35.19-106.56-9.74-131.85
				c25.44-25.29,48.39,21.85,48.39,21.85s7.7-129.36,34.83-129.41c50.53-0.09,49.53,141.08,49.53,141.08s12.9-55.27,39.95-40.12
				c40.8,22.85-17.71,133.61-17.71,133.61s51.99,0.04,70.25,26.25C1707.5,1439.16,1504.2,1718.75,1504.2,1718.75z"/>
		</g>
	</g>
	<g>
		<g>
			<path class="st1" d="M1528.65,1685.2c0,0-215.63-36.06-262.53-74.27c-46.9-38.21-0.48-55.44-0.48-55.44
				s-108.32-55.53-107.07-93.29c1.25-37.76,55.07-18.56,55.07-18.56s-91.27-104.08-69.66-123.84
				c40.25-36.82,145.76,71.37,145.76,71.37s-31.33-51.45,1.67-59.59c49.76-12.28,86.49,114.59,86.49,114.59s-9.33-50.1,24.98-43.43
				C1464.44,1414.72,1528.65,1685.2,1528.65,1685.2z"/>
		</g>
		<path class="st2" d="M1402.87,1402.75c-34.4-6.22-24.98,43.43-24.98,43.43s-36.73-126.87-86.49-114.59
			c-33,8.14-1.67,59.59-1.67,59.59s-105.52-108.19-145.76-71.37l383.95,365.46C1521.09,1650.35,1460.54,1413.17,1402.87,1402.75z"/>
	</g>
	<g>
		<path class="st3" d="M1590,1714.94c0,0-113.56-115.48-170.74-127.51c-57.19-12.03-46.9,28.66-46.9,28.66
			s-113.46-99.22-139.75-75.18c-26.29,24.04,2.15,47.25,2.15,47.25s-94.51-16.75-108.04,14.27
			c-20.79,47.66,134.64,73.59,134.64,73.59s-65.13,4.51-50.03,34.39C1234.11,1755.48,1590,1714.94,1590,1714.94z"/>
		<path class="st4" d="M1126.72,1602.43c13.53-31.01,108.04-14.27,108.04-14.27s-28.44-23.21-2.15-47.25
			c26.29-24.04,136.23,61.69,136.23,61.69s-25.92-49.54,31.27-37.52c57.19,12.03,189.91,149.86,189.91,149.86L1126.72,1602.43z"/>
	</g>
	<g>
		<path class="st5" d="M1770.79,523.91c-38.22,6.29-49.58,56.46-17.8,78.9c5.71,4.03,9.66,10.09,11.34,16.87l5.79,23.34
			c1.59,6.43,7.86,10.56,14.4,9.48l14.48-2.38c6.54-1.08,11.15-6.99,10.6-13.6c-2.01-24.09-4.49-32.83,3.34-43.58
			C1835.84,561.51,1809.02,517.61,1770.79,523.91z"/>
		<g>
			<path class="st6" d="M1774.69,625.9c-2.49-20.64-5.98-42.43-7.17-48.61c-21.91,1.21-13.58-21.89-3.47-12.5
				c2.88,2.68,4.24,6.31,5.14,10.28c7.28-0.66,14.39-2.73,20.88-6.08c-0.35-5.09-0.85-8.95,0.57-12.21
				c2.15-4.92,8.38-6.26,10.92-1.47c0.95,1.8,1.12,4.1,0.43,6.01c-1.47,4.07-5.89,6.76-9.75,8.87c1.15,16.41,2.75,32.95,4.76,49.23
				l-2.07,0.26c-1.98-16.02-3.56-32.29-4.71-48.44c-6.44,3.2-13.44,5.2-20.61,5.88c1.5,7.9,4.81,29.14,7.15,48.52L1774.69,625.9z
				 M1757.11,572.42c1.95,2.1,5.21,3.02,9.97,2.8c-0.82-3.51-2.04-6.66-4.46-8.9C1757.19,561.26,1753.85,568.9,1757.11,572.42z
				 M1792.54,557.62c-1.2,2.74-0.74,6.25-0.47,10.28c3.13-1.78,6.77-4.01,7.94-7.27c0.83-2.29-0.1-5.52-2.43-6.12
				C1797.33,554.44,1793.38,555.7,1792.54,557.62z"/>
		</g>
		<path class="st7" d="M1764.16,619.1c0.05,0.19,0.12,0.38,0.17,0.58l5.79,23.34c1.59,6.43,7.86,10.56,14.4,9.48l14.48-2.38
			c6.54-1.08,11.15-6.99,10.6-13.6c-0.89-10.72-1.88-18.39-2.01-24.56L1764.16,619.1z"/>
		<g>
			<path class="st6" d="M1742.45,506.48l-11.43-20.86c-1.11-2.02-0.37-4.55,1.65-5.66c2.02-1.11,4.55-0.37,5.66,1.65l11.43,20.86
				c1.11,2.02,0.37,4.55-1.65,5.66C1746.08,509.25,1743.56,508.49,1742.45,506.48z"/>
		</g>
		<g>
			<path class="st6" d="M1717.47,556.95l-24.92-2.18c-2.29-0.2-3.99-2.22-3.79-4.52c0.2-2.29,2.22-3.99,4.52-3.79l24.91,2.18
				c2.29,0.2,3.99,2.22,3.79,4.52C1721.79,555.45,1719.77,557.15,1717.47,556.95z"/>
		</g>
		<g>
			<path class="st6" d="M1692.77,633.33c-1.62-1.64-1.6-4.28,0.04-5.9c6.13-6.05,12.86-11.55,20.02-16.33
				c1.91-1.28,4.5-0.76,5.78,1.15c1.28,1.91,0.76,4.5-1.15,5.78c-6.72,4.49-13.04,9.65-18.79,15.33
				C1697.03,634.98,1694.39,634.98,1692.77,633.33z"/>
		</g>
		<g>
			<path class="st6" d="M1804.01,505.35c-2.23-0.59-3.55-2.88-2.95-5.1c2.82-10.56,4.55-21.45,5.14-32.37
				c0.13-2.3,2.09-4.07,4.39-3.94c2.3,0.12,4.06,2.09,3.94,4.39c-0.62,11.49-2.44,22.96-5.41,34.08
				C1808.52,504.64,1806.22,505.94,1804.01,505.35z"/>
		</g>
		<g>
			<path class="st6" d="M1829.67,537.38c-0.66-2.21,0.58-4.53,2.79-5.2l25.9-7.81c2.21-0.66,4.53,0.58,5.2,2.79
				c0.66,2.2-0.58,4.53-2.79,5.19l-25.9,7.81C1832.67,540.83,1830.34,539.59,1829.67,537.38z"/>
		</g>
		<g>
			<path class="st6" d="M1872.22,606.3c-0.37,0-0.75-0.05-1.13-0.16c-8.97-2.52-17.7-6.02-25.94-10.4c-2.03-1.08-2.8-3.6-1.72-5.64
				c1.08-2.03,3.61-2.81,5.64-1.73c7.71,4.1,15.88,7.37,24.28,9.73c2.22,0.62,3.51,2.92,2.88,5.14
				C1875.71,605.1,1874.04,606.3,1872.22,606.3z"/>
		</g>
	</g>
	<path class="st5" d="M2251.61,790.6l-13.07-30.9l-32.87-6.75c-3.74-0.77-4.98-5.5-2.09-8l25.35-21.98l-3.73-33.34
		c-0.43-3.8,3.69-6.43,6.96-4.46l28.73,17.32l30.56-13.85c3.48-1.58,7.26,1.52,6.4,5.24l-7.59,32.68l22.62,24.78
		c2.58,2.82,0.8,7.37-3.01,7.7l-33.43,2.88l-16.58,29.17C2257.98,794.4,2253.1,794.12,2251.61,790.6z"/>
	<polygon class="st8" points="2459.64,684.57 2454.27,706.2 2418.5,701.4 2406.75,732.06 2379.4,732.85 2379.8,746.69 
		2416.38,745.64 2427.52,716.59 2464.72,721.58 2472.8,689.02 	"/>
	<path class="st9" d="M2141.01,1721.59h-628.65c-24.01,0-43.48-20.19-43.48-45.09v-26.81c0-24.91,19.47-45.09,43.48-45.09h628.65
		l0,0c-28.76,32.6-29.25,82.43-1.16,115.64L2141.01,1721.59z"/>
	<path class="st6" d="M2131.31,1618h-348.68c-24.01,0-43.48,20.19-43.48,45.1l0,0c0,24.9,19.46,45.09,43.48,45.09h348.71
		C2115.04,1680.52,2115.08,1645.59,2131.31,1618z"/>
	<path class="st10" d="M1920.16,1523.33c0.91-1.71-0.48-3.7-2.59-3.7h-332.64c-26.07,0-47.21,19.02-47.21,42.49l0,0
		c0,23.46,21.14,42.49,47.21,42.49h332.73c2.12,0,3.52-2,2.59-3.72l0,0C1907.08,1576.33,1907.12,1547.78,1920.16,1523.33z"/>
	<path class="st5" d="M1918.06,1527.54H1753.2c-30.6,0-55.41,15.94-55.41,35.6c0,19.66,24.81,35.6,55.41,35.6h165.94
		C1907.8,1576.09,1907.49,1550.29,1918.06,1527.54z"/>
	<g>
		<path class="st9" d="M1875.48,1544.42h-21.47c-4.62,0-8.36,1.55-8.36,3.46v0.31h29.83V1544.42z"/>
		<path class="st11" d="M1893.8,1553.1c0-4.8-5.61-8.68-12.52-8.68h-27.55c5.25,0,9.5,2.95,9.5,6.59l-0.13,93.09l15.22-11.97
			l15.52,11.97L1893.8,1553.1z"/>
	</g>
	<g>
		<path class="st6" d="M1859,1516.57h-193.55c-17.16,0-31.08-16.51-31.08-36.88l0,0c0-20.37,13.91-36.88,31.08-36.88H1859l0,0
			c-14.79,20.45-15.37,50.44-1.38,71.67L1859,1516.57z"/>
		<path class="st4" d="M1634.4,1479.68L1634.4,1479.68c0-20.37,14.24-36.88,31.81-36.88h196.48c0.92,0,1.66-0.87,1.65-1.93l0,0
			c-0.01-1.05-0.74-1.89-1.65-1.89H1551c-19.39,0-35.11,18.22-35.11,40.71l0,0c0,22.48,15.72,40.71,35.11,40.71h311.69
			c0.9,0,1.64-0.85,1.65-1.89l0,0c0.01-1.06-0.73-1.93-1.65-1.93h-196.48C1648.64,1516.57,1634.4,1500.05,1634.4,1479.68z"/>
		<g>
			<path class="st12" d="M1825.21,1460.92h-21.47c-4.62,0-8.36,1.52-8.36,3.4v0.3h29.83V1460.92z"/>
			<path class="st2" d="M1843.52,1469.44c0-4.7-5.61-8.52-12.52-8.52h-27.55c5.25,0,9.5,2.89,9.5,6.46l-0.13,91.29l15.22-11.74
				l15.52,11.74L1843.52,1469.44z"/>
		</g>
	</g>
	<g>
		<g>
			<path class="st12" d="M2167.38,897.05l28.57-7.52l-19.37,258.3l-34.28,1.14l17.29-242.54
				C2159.92,901.96,2163.05,898.19,2167.38,897.05z"/>
			<g>
				<path class="st5" d="M2179.15,1155.19c-0.64,0.06-1.29,0.05-1.96-0.03c-5.67-0.67-9.88-6.31-9.38-12.61l19.02-242.88
					c0.49-6.29,5.49-10.85,11.17-10.18c5.68,0.67,9.88,6.31,9.38,12.61l-19.02,242.88
					C2187.92,1150.54,2183.97,1154.75,2179.15,1155.19z"/>
				<path class="st5" d="M1916.18,1168.13c0.01,0.18,0.02,0.36,0.04,0.54l0,0c0.9,9.88,8.55,17.27,17.1,16.51l241.3-21.6
					c8.55-0.76,14.75-9.4,13.86-19.28c-0.04-0.42-0.09-0.83-0.15-1.24L1916.18,1168.13z"/>
			</g>
		</g>
		<path class="st13" d="M2084.21,1429.01c-15.8,8.76-64.1-6.6-64.1-7.99c-0.69,13.2-54.08,142.4-54.08,142.4l0.04,39.75
			c0,0,110.01,5.24,108.43-4.48c-1.58-9.72-7.5-3.4-29.44-21.76c-1.95-1.63-32.76-8.78-24.42-27.02
			C2037.43,1513.18,2073.09,1451.94,2084.21,1429.01z"/>
		<path class="st2" d="M1962.46,1604.59l120.42,0.03c4.35-0.44,5.36-3.98,3.83-6.13c-3.16-4.43-26.24-14.86-41.75-21.79
			c-27.02,3.16-74.52-7.23-78.87-13.4C1954.64,1578.63,1960.03,1604.09,1962.46,1604.59z"/>
		<path class="st3" d="M1936.04,1336.25c-1.63-4.89,103.68-49.58,108.39-44.47c8.34,9.03-56.98,178.57-56.98,178.57l75.04,22.93
			c0,0,78.01-195.87,74.76-231.7c-3.26-35.83-42.34-76.54-127.02-50.48S1936.04,1336.25,1936.04,1336.25z"/>
		<path class="st13" d="M2154.08,1451.29c-17.78-3.24-40.82-4.16-59.26-4.48c2.17,16.42,12.73,100.64,10.8,105.81
			c-7.82,20.96-25.16,30.77-25.16,30.77s81.77,73.78,86.71,65.26c4.94-8.52-3.65-7.38-8.99-35.49c-0.47-2.5-12.3-41.73-13.03-62.9
			C2143.75,1509.91,2153.47,1473.71,2154.08,1451.29z"/>
		<path class="st4" d="M2127.84,1175.79c-11.41-6.09-41.02-6.3-73.59-4.19c-63.49,4.11-126.15,16.61-186.54,36.61l-40.41,13.39
			l0.13-41.43c0,0-128.56-21.51-133.03,10.35c-6.74,47.98,1.62,145.4,44.46,167.14c133.05,67.54,319.5-107.59,320.17-84.68
			c0.91,30.77,26.85,145.28,33.48,195.41c18.45,0.32,50.14,0.31,63.88-2.85C2159.06,1367.33,2160.32,1193.12,2127.84,1175.79z"/>
		<path class="st2" d="M2077.96,1585.13l91.92,73.43c3.64,2.41,6.67,0.32,6.84-2.31c0.36-5.43-10.88-28.13-18.49-43.31
			c-22.9-14.68-53.11-52.98-52.57-60.5C2095.99,1560.61,2076.41,1583.2,2077.96,1585.13z"/>
		<path class="st14" d="M1869.9,775.3c-3.09-28.23-6.34-56.56-29.74-77.25c-18.94-16.74-43.01-19.58-66.82-10.62
			c-67.45,25.38-32.7,85.28-118.7,145.68c-26.73,18.77-56.18,31.61-76.3,56.88c-28.16,35.37-17.53,77.92,8.14,106.33
			c122.81,135.92,259.93-47.64,269.77-91.71C1863.58,871.83,1871.89,793.47,1869.9,775.3z"/>
		<path class="st15" d="M1844.96,934.02c-10.03-18.49-20.37-33.17-20.37-33.17c-10.41-18.5-37.29-27.85-37.29-27.85
			s-8.99,0.18-19.32,0.69c-0.64,1.71-1.29,2.94-1.95,3.43c-3.88,2.91-26.12-0.85-40.48,8.91c-48.15,41.27-34.83,241.32-31.04,304.5
			l146.63,1.39c0,0-18.49-135.95,11.31-170.88C1873.2,996.71,1859.85,961.46,1844.96,934.02z"/>
		<path class="st13" d="M1778.87,805.32c0,0-8.06,57.56-13.69,71.55s30.95,43.9,61.39,52.98c30.44,9.08-9.3-30.9-8.04-45.85
			c1.26-14.95,6.79-85.75,6.79-85.75L1778.87,805.32z"/>
		<path class="st16" d="M1823.79,818.55c0.89-11.71,1.54-20.3,1.54-20.3l-46.46,7.07c0,0-1.17,6.76-2.47,16.33
			C1795.24,832.57,1812.17,829.12,1823.79,818.55z"/>
		<path class="st13" d="M1793.44,700.18c0,0-18.31,4.13-29.62,21.38c-11.31,17.25-19.06,68.05,18.17,91.76
			c37.24,23.71,66.2-9.83,66.68-42.54C1849.15,738.06,1842.14,694.41,1793.44,700.18z"/>
		<path class="st13" d="M1857.2,760.54c-3.18,7.89-9.48,12.79-14.08,10.94c-4.6-1.85-5.75-9.75-2.57-17.64
			c3.18-7.89,9.48-12.79,14.08-10.94C1859.22,744.75,1860.37,752.65,1857.2,760.54z"/>
		<path class="st14" d="M1798.93,699.11c0,0-23.34,52.36-43.85,57.04c-20.51,4.68-20.21,31.02-20.21,31.02s0.46-60.84,19.68-74.8
			C1773.77,698.41,1798.93,699.11,1798.93,699.11z"/>
		<path class="st13" d="M1763.23,767.03c2.7,8.5,0.23,16.88-5.52,18.7c-5.75,1.82-12.6-3.59-15.3-12.09
			c-2.7-8.5-0.23-16.88,5.52-18.7C1753.68,753.11,1760.53,758.52,1763.23,767.03z"/>
		<path class="st13" d="M2025.5,1145.05c-8.8-3.18-21.89-3.58-21.67-4.74c0.88-4.7,39.75,10.38,34.5,3.52
			c-2.92-3.82-32.01-17.35-39.08-15.11c-6.86,2.17-51.91,14.81-51.91,14.81l-123.11-28.85c0,0-31.07-70.61-34.11-131.28
			c-25.69,3.47-43.17,9.82-65.5,22.21c10.77,58.02,36.93,152.06,65.86,169.7c12.17,7.42,157.46-8.88,157.46-8.88
			s32.02-2.26,37.25-4.27c3.97-1.53,14.18-7.28,19.74-8.85c12.63-3.58,35.14,5.4,35.21,2.93
			C2040.2,1154.42,2034.49,1148.3,2025.5,1145.05z"/>
		<path class="st17" d="M1790.88,918.57c-1.18-18.67-8.25-36.69-28.12-42.5c-12.31-3.6-26.12-0.16-35.96,7.88
			c-11.7,9.56-14.97,24.89-14.92,39.4c0.12,32.95,2.37,67.12,8.39,99.56c22.32-12.39,48.38-19.84,74.07-23.31
			C1794.34,999.42,1792.45,943.24,1790.88,918.57z"/>
	</g>
	<g>
		<path class="st5" d="M1409.45,953.8l-190.86-35.54c-3.83-0.71-6.36-4.4-5.65-8.23l23.91-128.39c0.71-3.83,4.4-6.36,8.23-5.65
			l190.86,35.54c3.83,0.71,6.36,4.4,5.65,8.23l-23.91,128.39C1416.97,951.98,1413.28,954.51,1409.45,953.8z"/>
		<path class="st5" d="M1318.6,807.02l-58.1-10.82c-3.83-0.71-6.36-4.4-5.65-8.23l3.64-19.54c0.71-3.83,4.4-6.36,8.23-5.65
			l58.1,10.82c3.83,0.71,6.36,4.4,5.65,8.23l-3.64,19.54C1326.12,805.2,1322.43,807.73,1318.6,807.02z"/>
		<path class="st6" d="M1418.14,948.89c-0.99,3.51-4.5,5.69-8.09,5.02l-192.1-35.77c-3.57-0.67-6.06-3.93-5.74-7.56l10.05-115.09
			c0.17-1.98,1.18-3.8,2.76-5.01c1.59-1.2,3.61-1.68,5.56-1.32L1444,828.9c1.95,0.36,3.66,1.53,4.71,3.22
			c1.05,1.69,1.34,3.73,0.8,5.64L1418.14,948.89z"/>
	</g>
	<g>
		<polygon class="st1" points="2293.54,528.35 2260.86,537.28 2253.82,497.67 2264.51,495.77 2269.47,523.67 2290.68,517.87 		"/>
	</g>
	<g>
		<path class="st3" d="M1252.31,1072.28c8.18-0.67,20.75,2.94,26.38,6.76c0.85,0.79,7.33,3.37,14.06,14.53l-1.52,1.05
			c-7.11-7.44-11.89-9.11-17.58-10.81c-9.38-2.41-18.84-0.61-19.62-0.19L1252.31,1072.28z"/>
		<path class="st11" d="M1292,1094.09c0,0-49.87,8.32-45.22,47.28c4.65,38.96,57.26,69.26,104.21,45.17
			c63.17-32.41,38.22-114.82-6.74-121.19C1299.3,1058.98,1292,1094.09,1292,1094.09z"/>
		<path class="st8" d="M1313.16,1076.94c0,0,13.01-13.36,41.52-1.21c28.51,12.15,30.57,68.82,5.15,65.53
			C1334.39,1137.97,1292.83,1085.11,1313.16,1076.94z"/>
	</g>
	<g>
		<path class="st10" d="M1656.21,559.39l-205.1,73.16c-6.61,2.36-13.88-1.09-16.24-7.7l-37.86-106.13
			c-2.36-6.61,1.09-13.88,7.7-16.24l205.1-73.16c6.61-2.36,13.88,1.09,16.24,7.7l37.86,106.12
			C1666.27,549.76,1662.83,557.03,1656.21,559.39z"/>
		<path class="st18" d="M1520.27,532.11c7.54,21.14-3.48,44.4-24.63,51.94s-44.4-3.48-51.94-24.63
			c-7.54-21.14,3.48-44.4,24.63-51.94C1489.47,499.94,1512.73,510.97,1520.27,532.11z"/>
		<path class="st10" d="M1487.81,526.42c2.22,6.23-1.03,13.09-7.26,15.32c-6.23,2.22-13.09-1.03-15.32-7.26
			c-2.22-6.23,1.03-13.09,7.26-15.32C1478.73,516.94,1485.59,520.19,1487.81,526.42z"/>
		<path class="st10" d="M1507.34,559.85l-36.08,12.87l-1.44-4.05c-2.63-7.39,1.22-15.51,8.6-18.15l9.33-3.33
			c7.39-2.64,15.51,1.22,18.15,8.6L1507.34,559.85z"/>
		<g>
			<path class="st18" d="M1525.33,509.93c-2.19,0-4.15-1.38-4.88-3.44c-0.96-2.69,0.45-5.66,3.14-6.62l89.66-31.98
				c0.56-0.2,1.15-0.3,1.74-0.3c2.19,0,4.15,1.38,4.88,3.44c0.96,2.69-0.45,5.66-3.14,6.62l-89.66,31.98
				C1526.5,509.82,1525.92,509.93,1525.33,509.93z"/>
		</g>
		<g>
			<path class="st18" d="M1549.53,532.28c-2.19,0-4.15-1.38-4.88-3.44c-0.96-2.69,0.45-5.66,3.14-6.62l70.03-24.98
				c0.56-0.2,1.15-0.3,1.74-0.3c2.19,0,4.15,1.38,4.88,3.44c0.46,1.3,0.39,2.71-0.2,3.96c-0.59,1.25-1.64,2.2-2.94,2.66
				l-70.03,24.98C1550.71,532.17,1550.12,532.28,1549.53,532.28z"/>
		</g>
	</g>
	<path class="st11" d="M1974.89,1359.87h-495.24c-15.38,0-27.85,12.47-27.85,27.85v23.42c0,15.38,12.47,27.85,27.85,27.85h495.24
		l-0.26-0.27C1953.45,1416.67,1953.56,1381.79,1974.89,1359.87z"/>
	<path class="st6" d="M1966.13,1371.58h-264.75c-15.38,0-27.85,12.47-27.85,27.85l0,0c0,15.38,12.47,27.85,27.85,27.85h264.74
		C1956.39,1410.03,1956.4,1388.81,1966.13,1371.58z"/>
	<g>
		<g>
			<path class="st6" d="M2380.22,1362.15l-37.54-94.18c-1.89-4.74,0.42-10.11,5.16-12l135.08-53.84c4.74-1.89,10.11,0.42,12,5.16
				l37.54,94.18c1.89,4.74-0.42,10.11-5.16,12l-135.08,53.84C2387.48,1369.2,2382.11,1366.89,2380.22,1362.15z"/>
			<path class="st4" d="M2507.65,1307.69l-33.73-84.63c-0.54-1.36,0.12-2.9,1.48-3.44l0,0c1.36-0.54,2.9,0.12,3.44,1.48l33.73,84.63
				c0.54,1.36-0.12,2.9-1.48,3.44l0,0C2509.73,1309.71,2508.19,1309.05,2507.65,1307.69z"/>
			<path class="st4" d="M2491.58,1296.54l-27.7-69.49c-0.54-1.36,0.12-2.9,1.48-3.44l0,0c1.36-0.54,2.9,0.12,3.44,1.48l27.7,69.49
				c0.54,1.36-0.12,2.9-1.48,3.44l0,0C2493.66,1298.57,2492.12,1297.91,2491.58,1296.54z"/>
			<path class="st4" d="M2487.58,1315.69l-33.73-84.63c-0.54-1.36,0.12-2.9,1.48-3.44l0,0c1.36-0.54,2.9,0.12,3.44,1.48l33.73,84.63
				c0.54,1.36-0.12,2.9-1.48,3.44l0,0C2489.66,1317.71,2488.12,1317.05,2487.58,1315.69z"/>
			<path class="st4" d="M2469.85,1300.38l-26.04-65.32c-0.54-1.36,0.12-2.9,1.48-3.44l0,0c1.36-0.54,2.9,0.12,3.44,1.48l26.04,65.32
				c0.54,1.36-0.12,2.9-1.48,3.44l0,0C2471.93,1302.4,2470.39,1301.74,2469.85,1300.38z"/>
			<g>
				<path class="st3" d="M2506.74,1214.03l-0.68-1.7c-0.25-0.63-0.93-0.95-1.52-0.71l-12.82,5.11c-0.59,0.23-0.87,0.93-0.62,1.56
					l0.68,1.7c0.25,0.63,0.93,0.95,1.52,0.71l12.82-5.11C2506.71,1215.36,2506.99,1214.66,2506.74,1214.03z"/>
				<path class="st3" d="M2509.65,1221.32l-0.68-1.7c-0.25-0.63-0.93-0.95-1.52-0.71l-12.82,5.11c-0.59,0.23-0.87,0.93-0.62,1.56
					l0.68,1.7c0.25,0.63,0.93,0.95,1.52,0.71l12.82-5.11C2509.62,1222.65,2509.9,1221.95,2509.65,1221.32z"/>
				<path class="st3" d="M2512.55,1228.61l-0.68-1.7c-0.25-0.63-0.93-0.95-1.52-0.71l-12.82,5.11c-0.59,0.23-0.87,0.93-0.62,1.56
					l0.68,1.7c0.25,0.63,0.93,0.95,1.52,0.71l12.82-5.11C2512.53,1229.94,2512.8,1229.24,2512.55,1228.61z"/>
				<path class="st3" d="M2515.46,1235.9l-0.68-1.7c-0.25-0.63-0.93-0.95-1.52-0.71l-12.82,5.11c-0.59,0.24-0.87,0.93-0.62,1.56
					l0.68,1.71c0.25,0.63,0.93,0.95,1.52,0.71l12.82-5.11C2515.43,1237.23,2515.71,1236.53,2515.46,1235.9z"/>
				<path class="st3" d="M2518.36,1243.19l-0.68-1.7c-0.25-0.63-0.93-0.95-1.52-0.71l-12.82,5.11c-0.59,0.24-0.87,0.94-0.62,1.56
					l0.68,1.7c0.25,0.63,0.93,0.95,1.52,0.71l12.82-5.11C2518.34,1244.52,2518.61,1243.82,2518.36,1243.19z"/>
				<path class="st3" d="M2521.27,1250.48l-0.68-1.7c-0.25-0.63-0.93-0.95-1.52-0.71l-12.82,5.11c-0.59,0.24-0.87,0.93-0.62,1.56
					l0.68,1.7c0.25,0.63,0.93,0.95,1.52,0.71l12.82-5.11C2521.24,1251.81,2521.52,1251.11,2521.27,1250.48z"/>
				<path class="st3" d="M2524.17,1257.77l-0.68-1.7c-0.25-0.63-0.93-0.95-1.52-0.71l-12.82,5.11c-0.59,0.24-0.87,0.93-0.62,1.56
					l0.68,1.7c0.25,0.63,0.93,0.95,1.52,0.71l12.82-5.11C2524.15,1259.1,2524.42,1258.4,2524.17,1257.77z"/>
				<path class="st3" d="M2527.08,1265.06l-0.68-1.7c-0.25-0.63-0.93-0.95-1.52-0.71l-12.82,5.11c-0.59,0.24-0.87,0.93-0.62,1.56
					l0.68,1.7c0.25,0.63,0.93,0.95,1.52,0.71l12.82-5.11C2527.05,1266.39,2527.33,1265.69,2527.08,1265.06z"/>
				<path class="st3" d="M2529.98,1272.35l-0.68-1.7c-0.25-0.63-0.93-0.95-1.52-0.71l-12.82,5.11c-0.59,0.24-0.87,0.93-0.62,1.56
					l0.68,1.7c0.25,0.63,0.93,0.95,1.52,0.71l12.82-5.11C2529.96,1273.68,2530.23,1272.98,2529.98,1272.35z"/>
				<path class="st3" d="M2532.89,1279.64l-0.68-1.7c-0.25-0.63-0.93-0.95-1.52-0.71l-12.82,5.11c-0.59,0.24-0.87,0.93-0.62,1.56
					l0.68,1.7c0.25,0.63,0.93,0.95,1.52,0.71l12.82-5.11C2532.86,1280.97,2533.14,1280.27,2532.89,1279.64z"/>
				<path class="st3" d="M2535.79,1286.93l-0.68-1.71c-0.25-0.63-0.93-0.95-1.52-0.71l-12.82,5.11c-0.59,0.24-0.87,0.93-0.62,1.56
					l0.68,1.7c0.25,0.63,0.93,0.95,1.52,0.71l12.82-5.11C2535.77,1288.26,2536.04,1287.56,2535.79,1286.93z"/>
				<path class="st3" d="M2538.7,1294.22l-0.68-1.7c-0.25-0.63-0.93-0.95-1.52-0.71l-12.82,5.11c-0.59,0.23-0.87,0.93-0.62,1.56
					l0.68,1.7c0.25,0.63,0.93,0.95,1.52,0.71l12.82-5.11C2538.67,1295.54,2538.95,1294.85,2538.7,1294.22z"/>
			</g>
		</g>
		<g>
			<path class="st9" d="M2574.12,1286.72l-53.61,76.34c-0.12,0.17-0.21,0.36-0.28,0.56l-5.46,16.77c-0.64,1.95,1.62,3.56,3.26,2.33
				l14.35-10.82c0.18-0.13,0.33-0.29,0.46-0.47l53.75-76.54c0.69-0.98,0.42-2.33-0.59-2.98l-9.02-5.76
				C2576.02,1285.55,2574.77,1285.8,2574.12,1286.72z"/>
			<path class="st5" d="M2532.77,1371.51l-0.13,0.19l-13.85,10.44l-3.78-2.53l5.18-15.9
				C2524.25,1365.93,2529.11,1368.21,2532.77,1371.51z"/>
		</g>
	</g>
	<g>
		<path class="st4" d="M2030.97,460.25c7.72,6.16,21.14,25.98,38.27,39.89c10.02,8.14,17.74,6.07,30.53,7.61
			c60.68,7.33,44.24,19.74,51.52,20.96c-2.07,4.76-20.97,44.94-24.5,53.07c-3.26,7.49-8.89,10.85-17.05,9.72
			c-12.55-1.73-25.21-3.03-37.57-5.7c-31.67-6.87-49.29-22.71-71.99-41.95c-6.02-5.1-7.5-11.47-4.38-18.68
			C2010.32,491.59,2029.4,463.34,2030.97,460.25z"/>
		<path class="st10" d="M2157.86,577.06c-0.27,13.22,0.74,15.88-4.94,13.87c-3.42-1.21-6.73-2.78-9.96-4.45
			c-2.28-1.18-2.37-2.73-0.52-4.59c2.69-2.71,5.46-5.34,8.16-7.97c-1.97-5.19,0.29-11.22,5.14-14.06c0.99-0.58,0.27,0.65,8.72-18.8
			c-27.95-3.45-47.66-5.76-81.76-9.95c-9.12-1.12-17.22-4.66-24.27-10.56c-24.35-20.38-48.7-40.75-73.04-61.15
			c-3.3-2.77-3.72-6.82-1.1-9.94c2-2.39,4.66-2.5,7.52-2.14c7.78,0.98,84.07,10.45,91.82,11.36c10.18,1.19,19.14,5.02,27.01,11.61
			c23.92,20.03,47.91,40,71.86,59.99c3.29,2.74,4.18,5.26,3.02,8.31c-1.27,3.35-4.04,4.95-8.23,4.05c-3.02-0.65-4.36,0.26-5.4,3.06
			c-4.7,12.65-7.98,15.45-6.84,20.07C2165.93,569.34,2161.69,575.51,2157.86,577.06z"/>
	</g>
	<g>
		<path class="st4" d="M2284.43,1475.39l13.9,13.26c32.89,31.37,59.71,68.53,79.11,109.62l2.13,4.51c0,0,36.41,3.22,41.49-29.7l0,0
			c-31.94-36.07-58.24-74.57-79.94-117.4l-6.58-15.39L2284.43,1475.39z"/>
		<path class="st10" d="M2334.51,1440.25c1.79,2.56-7.98,12.46-21.81,22.11c-13.83,9.65-26.56,15.51-28.35,12.95
			c-1.79-2.56,8.04-12.58,21.88-22.23C2320.07,1443.43,2332.73,1437.68,2334.51,1440.25z"/>
		<path class="st3" d="M2334.57,1440.34l-0.04-0.05c0,0-27.71,23.46-39.14,25.85l3.53,4.8c4.17-2.26,8.91-5.19,13.79-8.59
			C2326.38,1452.82,2336.08,1443.04,2334.57,1440.34z"/>
		<g>
			<path class="st9" d="M2371.6,1508.45c0.05,4.04-1.5,21.5-30.54,28.78c1.91,2.6,3.79,5.23,5.63,7.88
				c18.38-5.43,26.65-14.87,30.36-22.06c0.59-1.14,1.3-2.66,1.77-3.84C2376.37,1515.65,2373.96,1512.07,2371.6,1508.45z"/>
			<polygon class="st9" points="2343.67,1532.07 2300.93,1530.54 2311.06,1539.14 2305.01,1550.12 2345.46,1539.81 			"/>
			<polygon class="st9" points="2347.56,1542.01 2332.38,1568.46 2343.06,1564.4 2347.17,1572.8 2354.31,1544.98 			"/>
			<path class="st11" d="M2353.36,1549.18c-7.5,0.53-14.03-5.31-14.58-13.04c-0.55-7.73,5.09-14.43,12.6-14.96
				c7.5-0.53,14.03,5.31,14.58,13.04C2366.51,1541.95,2360.87,1548.65,2353.36,1549.18z"/>
		</g>
	</g>
	<g>
		<path class="st19" d="M2444.08,949.01l-90-80.31c-5.85-5.22-3.41-15.96,4.66-20.53l71.83-40.67c4.6-2.6,9.78-2.36,13.11,0.61
			l90,80.31c5.85,5.22,3.41,15.96-4.66,20.53l-71.83,40.67C2452.59,952.23,2447.41,951.99,2444.08,949.01z"/>
		<g>
			<path class="st18" d="M2439.81,885.13l-7.5-61.7c-0.29-2.36,1.43-4.89,3.84-5.64c2.41-0.75,4.6,0.56,4.88,2.92l6.91,56.78
				l68.25,16.5c2.22,0.54,3.25,2.94,2.29,5.36c-0.96,2.42-3.55,3.95-5.78,3.41L2439.81,885.13z"/>
		</g>
	</g>
	<g>
		<path class="st12" d="M920.42,1720.85c-4.82,0-8.72,4.52-8.72,10.09c0,5.57,3.9,10.09,9.76,3.32h1772.62
			c2.27,0,4.11-2.98,4.13-6.66l0,0c0.01-3.72-1.84-6.75-4.13-6.75H920.42z"/>
	</g>
	<polygon class="st5" points="1264.55,602.49 1273.85,620.9 1294.87,620.22 1303.84,641.58 1326,633.96 1337.21,657.67 
		1358.48,653.17 1372.99,674.22 1365.03,679.71 1354.17,663.97 1331.72,668.73 1320.95,645.93 1298.42,653.68 1288.52,630.11 
		1268,630.77 1259.37,613.71 1245.99,616.97 1243.7,607.56 	"/>
	<polygon class="st1" points="2390.1,1073.27 2409.2,1081.03 2424.6,1066.71 2445.4,1076.93 2457.1,1056.62 2481.13,1067.14 
		2494.21,1049.77 2518.98,1056.11 2516.58,1065.48 2498.06,1060.75 2484.26,1079.08 2461.16,1068.97 2449.26,1089.62 
		2426.31,1078.34 2411.28,1092.32 2393.57,1085.13 2385.61,1096.38 2377.71,1090.79 	"/>
</g>
</svg>
